<svg width="32" height="32" viewBox="0 0 32 32" fill="none" xmlns="http://www.w3.org/2000/svg">
<path d="M16 0C12.8355 0 9.74207 0.938383 7.11088 2.69649C4.4797 4.45459 2.42894 6.95344 1.21793 9.87706C0.00693254 12.8007 -0.309921 16.0177 0.307443 19.1214C0.924806 22.2251 2.44866 25.0761 4.6863 27.3137C6.92394 29.5513 9.77487 31.0752 12.8786 31.6926C15.9823 32.3099 19.1993 31.9931 22.1229 30.7821C25.0466 29.5711 27.5454 27.5203 29.3035 24.8891C31.0616 22.2579 32 19.1645 32 16C32 13.8988 31.5861 11.8183 30.7821 9.87706C29.978 7.93585 28.7994 6.17203 27.3137 4.68629C25.828 3.20055 24.0641 2.022 22.1229 1.21793C20.1817 0.413852 18.1012 0 16 0ZM16 28.8C12.6052 28.8 9.3495 27.4514 6.94904 25.051C4.54857 22.6505 3.20001 19.3948 3.20001 16C3.20001 12.6052 4.54857 9.3495 6.94904 6.94903C9.3495 4.54857 12.6052 3.2 16 3.2C16.256 3.2 16.5056 3.224 16.7568 3.2384C15.4924 7.18203 15.8214 11.4639 17.6735 15.1681C19.5256 18.8722 22.7536 21.7045 26.6672 23.0592C25.5014 24.8225 23.9171 26.2696 22.0557 27.2714C20.1943 28.2731 18.1138 28.7983 16 28.8Z" fill="#BD93F9"/>
</svg>
