<svg width="33" height="33" viewBox="0 0 33 33" fill="none" xmlns="http://www.w3.org/2000/svg">
<path d="M16.5165 33H16.5C14.3399 33.004 12.2003 32.581 10.2042 31.7553L10.6244 30.7389C12.4873 31.5094 14.4841 31.904 16.5 31.9L16.5165 33ZM22.8272 31.7432L22.4048 30.7268C24.2721 29.9523 25.9678 28.8162 27.3944 27.3839L28.1721 28.1616C26.6441 29.6963 24.8276 30.9136 22.8272 31.7432ZM4.84996 28.1847C3.31401 26.6578 2.09512 24.8423 1.26342 22.8426L2.27872 22.4191C3.05553 24.2855 4.19345 25.98 5.62711 27.4054L4.84996 28.1847ZM31.7488 22.8123L30.7324 22.391C31.5071 20.5238 31.904 18.5215 31.9 16.5L31.8995 16.434H32.9995L33 16.4868C33 18.6868 32.5787 20.8103 31.7488 22.8123ZM0.214022 16.5269L7.29022e-05 16.5225C-0.00636755 14.3606 0.413982 12.2187 1.23702 10.2195L2.25452 10.6386C1.48866 12.4977 1.09638 14.4894 1.10007 16.5L0.214022 16.5269ZM30.7087 10.5506C29.9279 8.68606 28.7867 6.99399 27.3504 5.5715L28.1248 4.7905C29.6642 6.31395 30.8871 8.1269 31.7229 10.1249L30.7087 10.5506ZM5.58256 5.63804L4.80266 4.86255C6.3279 3.32486 8.14212 2.10391 10.1409 1.26995L10.565 2.28525C8.69936 3.06339 7.00606 4.20285 5.58256 5.63804ZM22.346 2.2484C20.4914 1.48633 18.5051 1.09614 16.5 1.1L16.45 0H16.5C18.6681 0 20.7757 0.414149 22.7645 1.2309L22.346 2.2484ZM16.5 4.675C9.96935 4.675 4.67506 9.96929 4.67506 16.5C4.67506 23.0307 9.9688 28.325 16.5 28.325C23.0313 28.325 28.325 23.0307 28.325 16.5C28.325 9.96929 23.0307 4.675 16.5 4.675Z" fill="#FF6E6E"/>
</svg>
