<svg width="64" height="64" viewBox="0 0 64 64" fill="none" xmlns="http://www.w3.org/2000/svg">
<rect width="64" height="64" rx="10" fill="#117746"/>
<path d="M31.5 28.7906C25.6563 28.7906 20.9104 27.8521 17.2625 25.975C13.6146 24.0979 11.7906 21.9906 11.7906 19.6531C11.7906 17.2802 13.6058 15.1641 17.236 13.3047C20.8662 11.4453 25.6209 10.5156 31.5 10.5156C37.3438 10.5156 42.0896 11.4453 45.7375 13.3047C49.3854 15.1641 51.2094 17.2802 51.2094 19.6531C51.2094 21.9906 49.3943 24.0979 45.7641 25.975C42.1339 27.8521 37.3792 28.7906 31.5 28.7906ZM31.5 40.5844C26.1875 40.5844 21.5745 39.7521 17.661 38.0875C13.7474 36.4229 11.7906 34.4042 11.7906 32.0312V25.4969C11.7906 26.7719 12.3485 27.9318 13.4641 28.9766C14.5797 30.0214 16.0672 30.9245 17.9266 31.6859C19.786 32.4474 21.8933 33.0406 24.2485 33.4656C26.6037 33.8906 29.0209 34.1031 31.5 34.1031C33.9792 34.1031 36.3964 33.8995 38.7516 33.4922C41.1068 33.0849 43.2141 32.5005 45.0735 31.7391C46.9328 30.9776 48.4203 30.0656 49.536 29.0031C50.6516 27.9406 51.2094 26.7719 51.2094 25.4969V32.0312C51.2094 34.4042 49.2615 36.4229 45.3656 38.0875C41.4698 39.7521 36.8479 40.5844 31.5 40.5844ZM31.5 52.4313C26.1875 52.4313 21.5745 51.599 17.661 49.9344C13.7474 48.2698 11.7906 46.251 11.7906 43.8781V37.3438C11.7906 38.6188 12.3485 39.7786 13.4641 40.8234C14.5797 41.8682 16.0672 42.7714 17.9266 43.5328C19.786 44.2943 21.8933 44.8786 24.2485 45.2859C26.6037 45.6932 29.0209 45.8969 31.5 45.8969C33.9792 45.8969 36.3964 45.6932 38.7516 45.2859C41.1068 44.8786 43.2141 44.3031 45.0735 43.5594C46.9328 42.8156 48.4203 41.9214 49.536 40.8766C50.6516 39.8318 51.2094 38.6542 51.2094 37.3438V43.8781C51.2094 46.251 49.2615 48.2698 45.3656 49.9344C41.4698 51.599 36.8479 52.4313 31.5 52.4313Z" fill="white"/>
</svg>
