<svg width="39" height="39" viewBox="0 0 39 39" fill="none" xmlns="http://www.w3.org/2000/svg">
<path d="M0.708496 38.2918V29.195H4.08245V9.80537H0.708496V0.708496H9.80537V4.08245H29.195V0.708496H38.2918V9.80537H34.9179V29.195H38.2918V38.2918H29.195V34.9179H9.80537V38.2918H0.708496ZM9.80537 32.3554H29.195V29.195H32.3554V9.80537H29.195V6.64495H9.80537V9.80537H6.64495V29.195H9.80537V32.3554ZM12.1116 26.9314L18.4752 10.1897H20.4825L26.8887 26.9314H24.7106L23.0022 22.3189H16.2116L14.5033 26.9314H12.1116ZM16.8095 20.3543H22.1908L19.6283 13.2647H19.3293L16.8095 20.3543ZM3.271 7.24287H7.24287V3.271H3.271V7.24287ZM31.7575 7.24287H35.7293V3.271H31.7575V7.24287ZM31.7575 35.7293H35.7293V31.7575H31.7575V35.7293ZM3.271 35.7293H7.24287V31.7575H3.271V35.7293Z" fill="black"/>
</svg>
