<svg width="64" height="64" viewBox="0 0 64 64" fill="none" xmlns="http://www.w3.org/2000/svg">
<path d="M0 64V0H64V64H0Z" fill="#FFD600"/>
<path d="M41.8453 47.9057C43.0755 49.904 44.4124 51.8186 47.2444 51.8186C49.623 51.8186 50.871 50.6364 50.871 49.0008C50.871 47.0435 49.5804 46.3484 46.9635 45.2088L45.5288 44.5973C41.3884 42.8408 38.6346 40.64 38.6346 35.9911C38.6346 31.7066 41.9146 28.4462 47.0399 28.4462C50.6897 28.4462 53.3119 29.7102 55.2035 33.0204L50.7341 35.8773C49.751 34.1208 48.6879 33.4293 47.0399 33.4293C45.3581 33.4293 44.2933 34.4906 44.2933 35.8773C44.2933 37.5911 45.3599 38.2844 47.8221 39.3457L49.2568 39.9573C54.1368 42.0355 56.8888 44.1582 56.8888 48.9297C56.8888 54.0711 52.8284 56.8888 47.3777 56.8888C42.0461 56.8888 39.0186 54.2133 37.3333 50.9013L41.8453 47.9057ZM21.2479 48.0515C22.1475 49.6622 23.5146 50.9013 25.4808 50.9013C27.3617 50.9013 28.4444 50.1582 28.4444 47.2693V28.4444H34.3697V48.1795C34.3697 54.1653 30.8977 56.8888 25.8275 56.8888C21.2461 56.8888 17.9395 53.7848 16.5919 50.9013L21.2479 48.0515Z" fill="#000001"/>
</svg>
