<?xml version="1.0" encoding="UTF-8"?>
<svg xmlns="http://www.w3.org/2000/svg" xmlns:xlink="http://www.w3.org/1999/xlink" viewBox="0 0 64 64" width="64px" height="64px">
<g id="surface23931433">
<path style=" stroke:none;fill-rule:nonzero;fill:rgb(12.941177%,63.921571%,40.000001%);fill-opacity:1;" d="M 8 64 C 3.582031 64 0 60.417969 0 56 L 0 8 C 0 3.582031 3.582031 0 8 0 L 56 0 C 60.417969 0 64 3.582031 64 8 L 64 56 C 64 60.417969 60.417969 64 56 64 Z M 8 64 "/>
<path style=" stroke:none;fill-rule:nonzero;fill:rgb(100%,100%,100%);fill-opacity:1;" d="M 31.988281 8.601562 C 31.332031 8.601562 30.675781 8.761719 30.109375 9.085938 L 12.269531 19.382812 C 11.117188 20.046875 10.398438 21.308594 10.398438 22.640625 L 10.398438 41.324219 C 10.398438 42.671875 11.117188 43.917969 12.269531 44.582031 L 16.953125 47.28125 C 19.222656 48.398438 20.03125 48.398438 21.054688 48.398438 C 24.421875 48.398438 26.347656 46.363281 26.347656 42.835938 L 26.347656 23.558594 C 26.347656 23.269531 26.113281 23.035156 25.828125 23.035156 L 23.578125 23.035156 C 23.269531 23.035156 23.054688 23.269531 23.054688 23.558594 L 23.054688 42.816406 C 23.054688 44.402344 21.417969 45.949219 18.769531 44.636719 L 13.875 41.808594 C 13.695312 41.71875 13.585938 41.519531 13.585938 41.324219 L 13.585938 22.660156 C 13.585938 22.441406 13.695312 22.261719 13.875 22.152344 L 31.710938 11.859375 C 31.875 11.75 32.089844 11.75 32.269531 11.859375 L 50.109375 22.152344 C 50.289062 22.261719 50.398438 22.445312 50.398438 22.640625 L 50.398438 41.324219 C 50.398438 41.519531 50.289062 41.71875 50.125 41.808594 L 32.269531 52.125 C 32.109375 52.214844 31.875 52.214844 31.710938 52.125 L 27.121094 49.40625 C 26.996094 49.316406 26.816406 49.296875 26.691406 49.371094 C 25.414062 50.089844 25.179688 50.179688 23.992188 50.59375 C 23.703125 50.683594 23.253906 50.863281 24.152344 51.367188 L 30.109375 54.898438 C 30.683594 55.222656 31.335938 55.398438 31.980469 55.398438 C 32.648438 55.398438 33.292969 55.222656 33.871094 54.898438 L 51.730469 44.582031 C 52.882812 43.917969 53.601562 42.671875 53.601562 41.324219 L 53.601562 22.660156 C 53.601562 21.308594 52.882812 20.066406 51.730469 19.398438 L 33.871094 9.085938 C 33.304688 8.761719 32.644531 8.601562 31.988281 8.601562 Z M 36.789062 23.011719 C 31.695312 23.011719 28.652344 25.167969 28.652344 28.769531 C 28.652344 32.675781 31.675781 33.753906 36.570312 34.238281 C 42.421875 34.816406 42.871094 35.683594 42.871094 36.832031 C 42.871094 38.8125 41.269531 39.660156 37.507812 39.660156 C 32.773438 39.660156 31.730469 38.472656 31.386719 36.128906 C 31.351562 35.878906 31.136719 35.699219 30.886719 35.699219 L 28.5625 35.699219 C 28.273438 35.699219 28.058594 35.933594 28.058594 36.203125 C 28.058594 39.210938 29.695312 42.789062 37.507812 42.789062 C 43.160156 42.789062 46.398438 40.558594 46.398438 36.671875 C 46.398438 32.820312 43.789062 31.792969 38.316406 31.054688 C 32.753906 30.335938 32.195312 29.957031 32.195312 28.660156 C 32.195312 27.582031 32.683594 26.160156 36.789062 26.160156 C 40.441406 26.160156 41.808594 26.949219 42.367188 29.417969 C 42.421875 29.648438 42.617188 29.832031 42.871094 29.832031 L 45.195312 29.832031 C 45.339844 29.832031 45.460938 29.757812 45.570312 29.652344 C 45.660156 29.5625 45.714844 29.417969 45.695312 29.253906 C 45.335938 25.007812 42.511719 23.011719 36.789062 23.011719 Z M 36.789062 23.011719 "/>
</g>
</svg>
