<?xml version="1.0" encoding="UTF-8"?>
<svg xmlns="http://www.w3.org/2000/svg" xmlns:xlink="http://www.w3.org/1999/xlink" viewBox="0 0 64 64" width="64px" height="64px">
<g id="surface23880020">
<path style=" stroke:none;fill-rule:nonzero;fill:rgb(12.54902%,12.54902%,12.54902%);fill-opacity:1;" d="M 8 64 C 3.582031 64 0 60.417969 0 56 L 0 8 C 0 3.582031 3.582031 0 8 0 L 56 0 C 60.417969 0 64 3.582031 64 8 L 64 56 C 64 60.417969 60.417969 64 56 64 Z M 8 64 "/>
<path style=" stroke:none;fill-rule:evenodd;fill:rgb(0%,86.274511%,100%);fill-opacity:1;" d="M 42.890625 8.042969 C 42 8.015625 41.070312 8.167969 40.140625 8.472656 C 38.273438 9.078125 36.320312 10.253906 34.3125 11.886719 C 33.527344 12.527344 32.734375 13.257812 31.9375 14.035156 C 31.160156 13.277344 30.382812 12.566406 29.613281 11.941406 C 27.609375 10.308594 25.660156 9.132812 23.796875 8.527344 C 21.9375 7.925781 20.085938 7.90625 18.566406 8.785156 C 17.042969 9.660156 16.132812 11.273438 15.726562 13.1875 C 15.320312 15.101562 15.363281 17.378906 15.773438 19.929688 C 15.914062 20.816406 16.117188 21.746094 16.351562 22.691406 C 15.480469 22.957031 14.636719 23.234375 13.855469 23.539062 C 11.492188 24.460938 9.539062 25.566406 8.117188 26.878906 C 6.691406 28.191406 5.773438 29.785156 5.773438 31.535156 C 5.773438 33.285156 6.691406 34.878906 8.117188 36.191406 C 9.539062 37.503906 11.492188 38.609375 13.855469 39.53125 C 14.691406 39.859375 15.597656 40.152344 16.53125 40.429688 C 16.195312 41.6875 15.921875 42.90625 15.738281 44.0625 C 15.328125 46.617188 15.285156 48.894531 15.691406 50.8125 C 16.101562 52.730469 17.011719 54.351562 18.539062 55.234375 C 20.070312 56.117188 21.929688 56.097656 23.792969 55.492188 C 25.660156 54.886719 27.613281 53.710938 29.617188 52.078125 C 30.398438 51.445312 31.183594 50.722656 31.972656 49.953125 C 32.765625 50.726562 33.558594 51.453125 34.339844 52.089844 C 36.34375 53.71875 38.296875 54.898438 40.15625 55.5 C 42.019531 56.105469 43.871094 56.121094 45.390625 55.246094 C 46.910156 54.367188 47.820312 52.753906 48.226562 50.839844 C 48.632812 48.925781 48.589844 46.652344 48.179688 44.101562 C 47.992188 42.941406 47.722656 41.714844 47.382812 40.457031 C 48.347656 40.171875 49.285156 39.867188 50.144531 39.53125 C 52.507812 38.609375 54.460938 37.503906 55.882812 36.191406 C 57.308594 34.878906 58.226562 33.285156 58.226562 31.535156 C 58.226562 29.785156 57.308594 28.191406 55.882812 26.878906 C 54.460938 25.566406 52.507812 24.460938 50.144531 23.539062 C 49.351562 23.230469 48.496094 22.949219 47.613281 22.683594 C 47.84375 21.730469 48.050781 20.792969 48.195312 19.902344 C 48.605469 17.347656 48.648438 15.066406 48.238281 13.148438 C 47.832031 11.230469 46.917969 9.613281 45.390625 8.730469 C 44.625 8.289062 43.777344 8.074219 42.890625 8.042969 Z M 42.785156 10.363281 C 43.34375 10.378906 43.820312 10.511719 44.226562 10.746094 C 45.039062 11.21875 45.640625 12.132812 45.960938 13.636719 C 46.285156 15.140625 46.273438 17.175781 45.894531 19.535156 C 45.765625 20.339844 45.574219 21.199219 45.363281 22.074219 C 43.03125 21.511719 40.476562 21.097656 37.753906 20.851562 C 36.386719 18.957031 34.980469 17.234375 33.566406 15.703125 C 34.3125 14.972656 35.058594 14.289062 35.785156 13.695312 C 37.636719 12.191406 39.390625 11.164062 40.855469 10.691406 C 41.585938 10.453125 42.226562 10.347656 42.785156 10.363281 Z M 21.15625 10.371094 C 21.71875 10.355469 22.359375 10.457031 23.09375 10.695312 C 24.5625 11.171875 26.320312 12.199219 28.171875 13.707031 C 28.886719 14.285156 29.613281 14.957031 30.347656 15.667969 C 28.917969 17.210938 27.503906 18.953125 26.128906 20.863281 C 23.414062 21.113281 20.871094 21.53125 18.550781 22.09375 C 18.339844 21.222656 18.152344 20.371094 18.023438 19.566406 C 17.644531 17.207031 17.632812 15.171875 17.953125 13.664062 C 18.277344 12.152344 18.882812 11.234375 19.703125 10.757812 C 20.117188 10.519531 20.59375 10.386719 21.15625 10.371094 Z M 31.972656 17.34375 C 32.902344 18.355469 33.832031 19.460938 34.75 20.648438 C 33.847656 20.613281 32.929688 20.589844 32 20.589844 C 31.050781 20.589844 30.117188 20.613281 29.195312 20.652344 C 30.117188 19.460938 31.042969 18.355469 31.972656 17.34375 Z M 32 22.890625 C 33.550781 22.890625 35.0625 22.953125 36.53125 23.0625 C 37.542969 24.515625 38.53125 26.054688 39.472656 27.6875 C 40.296875 29.121094 41.046875 30.550781 41.726562 31.960938 C 41.039062 33.394531 40.277344 34.84375 39.441406 36.296875 C 38.703125 37.574219 37.929688 38.789062 37.148438 39.960938 C 35.488281 40.101562 33.765625 40.175781 32 40.175781 C 30.191406 40.175781 28.433594 40.09375 26.734375 39.949219 C 25.964844 38.796875 25.207031 37.601562 24.480469 36.339844 C 23.644531 34.890625 22.886719 33.445312 22.199219 32.015625 C 22.886719 30.578125 23.648438 29.125 24.492188 27.667969 C 25.425781 26.042969 26.414062 24.511719 27.417969 23.066406 C 28.902344 22.957031 30.433594 22.890625 32 22.890625 Z M 39.464844 23.347656 C 41.34375 23.582031 43.109375 23.90625 44.75 24.296875 C 44.261719 25.894531 43.660156 27.5625 42.933594 29.285156 C 42.464844 28.375 41.972656 27.460938 41.445312 26.546875 C 40.804688 25.4375 40.136719 24.378906 39.464844 23.347656 Z M 24.414062 23.367188 C 23.753906 24.378906 23.105469 25.414062 22.476562 26.503906 C 21.941406 27.429688 21.441406 28.355469 20.964844 29.277344 C 20.242188 27.566406 19.648438 25.90625 19.164062 24.316406 C 20.792969 23.925781 22.546875 23.601562 24.414062 23.367188 Z M 47.003906 24.902344 C 47.8125 25.148438 48.59375 25.402344 49.308594 25.683594 C 51.484375 26.53125 53.207031 27.539062 54.324219 28.570312 C 55.441406 29.601562 55.925781 30.582031 55.925781 31.535156 C 55.925781 32.488281 55.441406 33.46875 54.324219 34.5 C 53.207031 35.53125 51.484375 36.539062 49.308594 37.386719 C 48.511719 37.699219 47.640625 37.980469 46.730469 38.246094 C 46.082031 36.242188 45.253906 34.152344 44.269531 32.015625 C 45.402344 29.566406 46.316406 27.175781 47.003906 24.902344 Z M 16.957031 24.914062 C 17.636719 27.164062 18.539062 29.53125 19.65625 31.957031 C 18.664062 34.105469 17.832031 36.207031 17.183594 38.222656 C 16.304688 37.964844 15.460938 37.6875 14.691406 37.386719 C 12.515625 36.539062 10.792969 35.53125 9.675781 34.5 C 8.558594 33.46875 8.074219 32.488281 8.074219 31.535156 C 8.074219 30.582031 8.558594 29.601562 9.675781 28.570312 C 10.792969 27.539062 12.515625 26.53125 14.691406 25.683594 C 15.394531 25.40625 16.164062 25.15625 16.957031 24.914062 Z M 32 26.300781 C 28.867188 26.300781 26.300781 28.863281 26.300781 32 C 26.300781 35.132812 28.867188 37.699219 32 37.699219 C 35.132812 37.699219 37.699219 35.132812 37.699219 32 C 37.699219 28.863281 35.132812 26.300781 32 26.300781 Z M 20.992188 34.695312 C 21.472656 35.621094 21.96875 36.550781 22.507812 37.480469 C 22.929688 38.210938 23.359375 38.917969 23.792969 39.617188 C 22.261719 39.402344 20.808594 39.136719 19.441406 38.816406 C 19.875 37.488281 20.398438 36.105469 20.992188 34.695312 Z M 42.964844 34.695312 C 43.5625 36.109375 44.082031 37.492188 44.519531 38.828125 C 43.148438 39.144531 41.6875 39.410156 40.152344 39.625 C 40.59375 38.917969 41.03125 38.199219 41.457031 37.460938 C 41.992188 36.535156 42.488281 35.613281 42.964844 34.695312 Z M 18.785156 41.03125 C 20.847656 41.519531 23.085938 41.894531 25.453125 42.140625 C 27.039062 44.429688 28.6875 46.484375 30.347656 48.28125 C 29.605469 49.007812 28.867188 49.683594 28.148438 50.269531 C 26.296875 51.777344 24.539062 52.800781 23.074219 53.277344 C 21.609375 53.75 20.519531 53.6875 19.703125 53.21875 C 18.890625 52.75 18.292969 51.835938 17.96875 50.328125 C 17.648438 48.824219 17.660156 46.792969 18.039062 44.433594 C 18.210938 43.363281 18.464844 42.21875 18.785156 41.03125 Z M 45.175781 41.039062 C 45.5 42.234375 45.757812 43.382812 45.929688 44.460938 C 46.308594 46.820312 46.316406 48.855469 45.996094 50.363281 C 45.675781 51.875 45.070312 52.796875 44.25 53.273438 C 43.429688 53.746094 42.324219 53.808594 40.859375 53.332031 C 39.390625 52.855469 37.632812 51.832031 35.777344 50.320312 C 35.054688 49.734375 34.3125 49.046875 33.566406 48.320312 C 35.234375 46.511719 36.894531 44.445312 38.488281 42.144531 C 40.867188 41.898438 43.109375 41.527344 45.175781 41.039062 Z M 28.429688 42.371094 C 29.597656 42.4375 30.785156 42.480469 32 42.480469 C 33.175781 42.480469 34.320312 42.4375 35.453125 42.378906 C 34.296875 43.941406 33.117188 45.363281 31.941406 46.640625 C 30.765625 45.359375 29.585938 43.9375 28.429688 42.371094 Z M 28.429688 42.371094 "/>
</g>
</svg>
